<svg width="64" height="64" viewBox="0 0 64 64" fill="none" xmlns="http://www.w3.org/2000/svg">
<path d="M32 0C14.327 0 0 14.327 0 32C0 49.673 14.327 64 32 64C49.673 64 64 49.673 64 32C64 14.327 49.673 0 32 0ZM32 58C17.663 58 6 46.337 6 32C6 17.663 17.663 6 32 6C46.337 6 58 17.663 58 32C58 46.337 46.337 58 32 58Z" fill="url(#paint0_linear_1)"/>
<path d="M39.845 20.673C39.027 19.855 37.891 19.855 37.073 20.673L26.927 30.818C26.109 31.636 26.109 32.773 26.927 33.591L37.073 43.736C37.891 44.555 39.027 44.555 39.845 43.736C40.664 42.918 40.664 41.782 39.845 40.964L30.882 32.209L39.845 23.455C40.664 22.636 40.664 21.491 39.845 20.673Z" fill="url(#paint1_linear_1)"/>
<path d="M24 32C24 30.343 25.343 29 27 29H41C42.657 29 44 30.343 44 32C44 33.657 42.657 35 41 35H27C25.343 35 24 33.657 24 32Z" fill="url(#paint2_linear_1)"/>
<defs>
<linearGradient id="paint0_linear_1" x1="32" y1="0" x2="32" y2="64" gradientUnits="userSpaceOnUse">
<stop stop-color="#7B2CBF"/>
<stop offset="1" stop-color="#4CC9F0"/>
</linearGradient>
<linearGradient id="paint1_linear_1" x1="33.3865" y1="19.855" x2="33.3865" y2="44.555" gradientUnits="userSpaceOnUse">
<stop stop-color="#00F5FF"/>
<stop offset="1" stop-color="#7B2CBF"/>
</linearGradient>
<linearGradient id="paint2_linear_1" x1="34" y1="29" x2="34" y2="35" gradientUnits="userSpaceOnUse">
<stop stop-color="#00F5FF"/>
<stop offset="1" stop-color="#4CC9F0"/>
</linearGradient>
</defs>
</svg>